<?xml version="1.0" encoding="utf-8"?>
<!-- Generator: Adobe Illustrator 25.4.1, SVG Export Plug-In . SVG Version: 6.00 Build 0)  -->
<svg version="1.1" id="Layer_1" xmlns="http://www.w3.org/2000/svg" xmlns:xlink="http://www.w3.org/1999/xlink" x="0px" y="0px"
	 viewBox="0 0 157.6 140.6" style="enable-background:new 0 0 157.6 140.6;" xml:space="preserve">
<style type="text/css">
	.st0{fill:#4AF626;}
</style>
<g id="Layer_2_00000176030134689647181510000003532917440887871637_">
	<g id="Layer_1-2">
		<path class="st0" d="M148.9,88.1c-0.7-2.4-1.9-4.6-3.4-6.6c-1.8-1-3.8-1.7-5.8-2.2c-0.2,0.7-0.4,1.3-0.6,2.1
			c-2.1,7.4-0.2,18,1.2,24.3C145.5,103,148,93,148.9,88.1z"/>
		<path class="st0" d="M147.8,78.5l1.1,0.6c-1.7-3.5-3.6-7-5.7-10.3c-0.9,2.3-1.8,4.6-2.4,6.9C143.2,76.4,145.6,77.3,147.8,78.5z"/>
		<path class="st0" d="M154,111.5c0.3-4.6,0.4-9.1,0.2-13.7c-0.1-3.2-0.6-6.3-1.6-9.3c-1.3,7.1-4.4,18.1-11.3,20.9
			c1.3,5.2-0.3,21.3-5.7,26.4c9.2,2.3,15.1-8.7,16.3-12C152.9,120.5,153.7,115.7,154,111.5z"/>
		<path class="st0" d="M136.6,76.2c-8.2,0-12.7,3.8-13.7,7c-4.6-1.6-9.4-2.1-14.2-1.5c-1.7-4-5.7-6.5-10-6.2
			c-4.6,0-9.1,0.4-13.6,0.9l-2.9,0.4c-4,0.6-6.6,1.1-6.6,1.1l-33,1.1c-0.4-0.9-0.8-1.8-1.3-2.7l0.1,0.1c0.6-1,1-2.1,1.3-3.2
			c0.9,0.8,1.8,1.5,2.8,2.1c1.3-2.2,2.1-4.6,2.6-7.1c0.7,1,1.5,2,2.4,2.9c1.5-3.6,2.2-7.4,2.3-11.3c0-0.5,0-0.9,0-1.3
			c0.3,0.6,0.6,1.3,0.9,1.9c0.1,0.1,0.1,0.2,0.2,0.3l0,0l0.1,0.2c0.1,0.2,0.2,0.3,0.2,0.5c0.4,0.6,0.8,1.1,1.3,1.6
			c1.2,0.9,2.4,1.7,3.8,2.3c1.2-1,2.2-2.2,2.8-3.6c0.3-0.5,0.5-1,0.8-1.4l0.2-0.3c0,0,0.1-0.1,0.1-0.1v-0.3c0-0.5,0-0.8,0-1.1
			c0-0.1,0-0.2,0-0.3c0.3,0.5,0.6,1.1,1,1.6c0.6,0.8,1.3,1.6,2,2.2c1.6,1.6,3.7,2.6,5.9,3c1.1,0.2,2.2,0.1,3.3-0.3
			c1-0.3,2-1,2.6-1.8c-1.4-0.8-2.4-2-3.1-3.5c-0.4-1-0.7-2.1-1-3.2c-0.2-0.7-0.5-1.6-0.8-2.4c0.4,0.4,0.9,0.7,1.4,1
			c1.4,0.8,3,1.3,4.7,1.4c0.9,0.1,1.7,0,2.6-0.2c0.9-0.2,1.8-0.6,2.6-1.1c-0.4-1-0.7-1.8-1-2.5l-0.8-2c-0.4-1-0.9-2.1-1.4-3.1
			c-0.3-0.5-0.6-1.1-0.9-1.5c0.8,0.5,1.5,1,2.2,1.5c1,0.7,2.1,1.3,3.1,1.9c0.5,0.3,1,0.6,1.7,0.9s1.2,0.5,1.7,0.8
			c2.2,1,4.4,1.8,6.6,2.5c1.9,0.5,3.7,1.2,5.4,2.1l5.3,2.8c1.8,1,3.8,2,5.8,2.9s3.9,1.8,5.9,2.7s4,2.1,6.5,3.5
			c0.3-2.1,0.2-4.2-0.5-6.2l0.3,0.1c0.4,0.2,0.8,0.4,1.2,0.6c2,0.9,3.7,2.3,5.2,3.9c1.3-2.3,1.5-5.1,0.6-7.6
			c1.2,1.1,2.5,2.2,3.7,3.4c2.2,2.2,4.1,4.7,5.6,7.4c0.6-1.6,0.9-3.4,0.9-5.1c0-1.8-0.2-3.6-0.7-5.3c-0.4-1.5-0.8-2.9-1.4-4.2l2,1.3
			c2.5,1.7,5.1,3.5,8,5.3c-0.3-3.4-1.3-6.7-2.7-9.7c-1.5-3.1-3.4-6-5.7-8.5c-0.5-0.6-1.1-1.2-1.7-1.7c5.3,1.3,10.3,3,15.5,6.9
			c-0.6-4-2.5-7.7-5.3-10.6c-2.7-2.9-6-5.3-9.5-7.1c-1.5-0.8-3-1.5-4.5-2.1c3.1-0.7,6.2-1.5,9.4-2.5c-2.9-1.7-6-2.9-9.2-3.9
			c-3.1-0.9-6.2-1.7-9.4-2.2c-1.5-0.3-3-0.5-4.4-0.7l1.5-0.2c1.6-0.2,3.2-0.5,4.7-0.8c1.6-0.3,3.2-0.5,4.9-0.5
			c-1.1-1.4-2.5-2.5-4.1-3.3c-1.5-0.8-3.1-1.5-4.7-2.1c-3.1-1.2-6.4-2.2-9.7-2.8c-3.3-0.6-6.7-0.9-10.1-0.8c-1.7,0-3.4,0.1-5.1,0.3
			c-1.7,0.2-3.2,0.4-4.8,0.7l-1.5,0.3c1.7-1.4-2.8-3.8-6.5-3.8c-5.3,0-21.5-6.4-51.3,10.9c-2.9,0.9-5.8-4.7-12,4.9
			S8.7,61.2,8.7,63.2c0,2,1.1,5.6,0,8.3S-0.4,92.4,4,109.3s7.8,21.6,13.1,22c0.6,0,1.2,0,1.8-0.1v0.1c10.2,0,28.3,5.4,28.3-8.9
			c0-10.2,1.3-26.1-3.2-39.6c6.9-0.1,29.8-0.5,31-0.5c1.5,0,2.5,3.1,2.5,5.9l0,0c-0.6,8.9,3.2,19.3,13.8,19.3
			c16.2,0,19.1-13.1,19.1-16.7c0-2.3-0.3-4.7-0.9-6.9c4.4-0.3,8.8,0.2,12.9,1.6c-2.6,14.7,3.3,23.8,15.3,23.8
			c9,0,12.7-13.6,14.1-21.3c0.6-3,0.7-5.2,0.7-5.2c-1.6-1.4-3.3-2.5-5.1-3.5C144.1,77.4,140.4,76.3,136.6,76.2z M105.4,99.2
			c-3,4.1-7.8,6.2-14,6.2c-3,0.1-5.8-1.1-7.8-3.2c-2.9-3.1-4.4-8.3-4-13.9c0.3-4.2,1.6-7.8,3.5-9.6c0.6-0.1,1.2-0.2,1.8-0.2l0.4-0.1
			c4.4-0.6,8.9-0.9,13.4-0.9c3.5-0.2,6.8,1.8,8.2,5.1c0.3,0.6,0.5,1.2,0.7,1.9c0.6,2.1,0.9,4.2,0.8,6.4
			C108.3,93.8,107.2,96.8,105.4,99.2z M140.1,106.8c-0.5,0.2-1,0.3-1.6,0.4c-0.3,0-0.5,0-0.8,0c-0.6,0-1.1,0-1.7-0.1h-0.2
			c-1.8-0.1-3.5-0.6-5.1-1.4c-1.4-0.7-2.6-1.6-3.6-2.8c-1-1.3-1.8-2.7-2.3-4.3c-1-3.5-1.3-7.2-0.7-10.8c0.1-0.7,0.2-1.4,0.3-2.1
			l0.1-0.7l0.1-0.4c0-0.2,0.1-0.4,0.1-0.7s0-0.2,0.1-0.2c0.6-1.9,3.8-5.6,11.7-5.6c3.3,0.1,6.6,1,9.5,2.7c1.7,2.2,2.9,4.6,3.7,7.2
			C148.8,93.5,146,104.4,140.1,106.8z"/>
	</g>
</g>
</svg>
